<svg width="28" height="29" viewBox="0 0 28 29" fill="none" xmlns="http://www.w3.org/2000/svg">
<path d="M19.9071 28.9992H8.09291C3.63036 28.9992 0 25.2392 0 20.6173V8.38194C0 3.76001 3.63036 0 8.09291 0H19.9071C24.3696 0 28 3.76001 28 8.38194V20.6181C28 25.24 24.3696 29 19.9071 29V28.9992ZM8.09291 2.91722C5.1839 2.91722 2.81737 5.36827 2.81737 8.38118V20.6173C2.81737 23.6302 5.1839 26.0812 8.09291 26.0812H19.9071C22.8161 26.0812 25.1826 23.6302 25.1826 20.6173V8.38194C25.1826 5.36904 22.8161 2.91799 19.9071 2.91799H8.09291V2.91722Z" fill="white"/>
<path d="M13.9996 21.839C10.0921 21.839 6.91334 18.5467 6.91334 14.4996C6.91334 10.4526 10.0921 7.16025 13.9996 7.16025C17.9071 7.16025 21.0859 10.4526 21.0859 14.4996C21.0859 18.5467 17.9071 21.839 13.9996 21.839ZM13.9996 9.59829C11.3899 9.59829 9.26731 11.7975 9.26731 14.4996C9.26731 17.2017 11.3907 19.401 13.9996 19.401C16.6086 19.401 18.732 17.2017 18.732 14.4996C18.732 11.7975 16.6086 9.59829 13.9996 9.59829Z" fill="white"/>
<path d="M21.2256 8.50671C22.1379 8.50671 22.8774 7.74075 22.8774 6.79588C22.8774 5.85101 22.1379 5.08504 21.2256 5.08504C20.3133 5.08504 19.5738 5.85101 19.5738 6.79588C19.5738 7.74075 20.3133 8.50671 21.2256 8.50671Z" fill="white"/>
</svg>
