<svg width="27" height="27" viewBox="0 0 27 27" fill="none" xmlns="http://www.w3.org/2000/svg">
<path d="M6.03543 9.05432H0.385463V26.9993H6.03543V9.05432Z" fill="white"/>
<path d="M3.94094 6.44305C5.69592 6.06187 6.81024 4.32723 6.42984 2.56864C6.04944 0.810049 4.31836 -0.30656 2.56338 0.0746252C0.808391 0.45581 -0.305931 2.19044 0.0744719 3.94904C0.454875 5.70763 2.18595 6.82424 3.94094 6.44305Z" fill="white"/>
<path d="M20.6038 8.52039C16.2329 8.52039 14.9899 11.5116 14.9899 11.5116V9.05506H9.55332V27H15.2033V17.6002C15.2033 16.3184 15.5941 13.4342 18.5077 13.4342C21.4214 13.4342 21.4214 16.817 21.4214 16.817V27H27V16.3538C27 11.2977 24.9746 8.52039 20.6038 8.52039Z" fill="white"/>
</svg>
